<svg width="188" height="162" viewBox="0 0 188 162" fill="none" xmlns="http://www.w3.org/2000/svg">
<g filter="url(#filter0_d_147_49)">
<path d="M109 50H100.5V31H134C139.523 31 144 35.4772 144 41V75H125V66C125 57.1634 117.837 50 109 50Z" fill="#FFFBFB"/>
<path d="M125 87V96C125 104.837 117.837 112 109 112H101V131H134C139.523 131 144 126.523 144 121V87H125Z" fill="#FFFBFB"/>
<path d="M89 112V131H54C48.4772 131 44 126.523 44 121V87H63V96C63 104.837 70.1634 112 79 112H89Z" fill="#FFFBFB"/>
<path d="M75 87H95C98.3137 87 101 84.3137 101 81C101 77.6863 98.3137 75 95 75H75V66C75 63.7909 76.7909 62 79 62H109C111.209 62 113 63.7909 113 66V96C113 98.2091 111.209 100 109 100H79C76.7909 100 75 98.2091 75 96V87Z" fill="#FFFBFB"/>
<path d="M63 75H44V41C44 35.4772 48.4772 31 54 31H88.5V50H79C70.1634 50 63 57.1634 63 66V75Z" fill="#FFFBFB"/>
</g>
<defs>
<filter id="filter0_d_147_49" x="-4" y="0" width="196" height="170" filterUnits="userSpaceOnUse" color-interpolation-filters="sRGB">
<feFlood flood-opacity="0" result="BackgroundImageFix"/>
<feColorMatrix in="SourceAlpha" type="matrix" values="0 0 0 0 0 0 0 0 0 0 0 0 0 0 0 0 0 0 127 0" result="hardAlpha"/>
<feOffset dy="4"/>
<feGaussianBlur stdDeviation="2"/>
<feComposite in2="hardAlpha" operator="out"/>
<feColorMatrix type="matrix" values="0 0 0 0 0 0 0 0 0 0 0 0 0 0 0 0 0 0 0.25 0"/>
<feBlend mode="normal" in2="BackgroundImageFix" result="effect1_dropShadow_147_49"/>
<feBlend mode="normal" in="SourceGraphic" in2="effect1_dropShadow_147_49" result="shape"/>
</filter>
</defs>
</svg>
